<?xml version="1.0" standalone="no"?><!DOCTYPE svg PUBLIC "-//W3C//DTD SVG 1.1//EN" "http://www.w3.org/Graphics/SVG/1.1/DTD/svg11.dtd"><svg t="1615612228775" class="icon" viewBox="0 0 1024 1024" version="1.1" xmlns="http://www.w3.org/2000/svg" p-id="10093" xmlns:xlink="http://www.w3.org/1999/xlink" width="128" height="128"><defs><style type="text/css"></style></defs><path d="M895.552 291.541333a104.256 104.256 0 0 1 19.456 85.973334L886.037333 651.093333c-11.072 48.938667-51.328 81.344-97.984 81.344H344.170667c-46.784 0-87.850667-33.877333-97.578667-80.405333L192.704 199.808c-3.2-14.634667-17.066667-25.898667-32.810667-25.898667H96.789333C78.805333 173.909333 64 158.976 64 140.586667 64 122.133333 78.805333 106.666667 96.789333 106.666667h63.104c46.762667 0 87.850667 33.898667 97.578667 80.405333l53.888 452.224c3.2 14.634667 17.066667 25.898667 32.810667 25.898667h443.989333a33.28 33.28 0 0 0 32.789333-26.837334l28.970667-273.578666c2.794667-12.202667 0.512-23.04-5.994667-31.466667a33.365333 33.365333 0 0 0-26.389333-13.162667H374.485333c-18.005333 0-32.810667-15.04-32.810666-33.344 0-18.325333 14.805333-33.365333 32.810666-33.365333h442.944c30.506667 0 59.178667 14.08 78.122667 38.101333zM746.666667 858.154667a56.896 56.896 0 1 1 113.770666 0 56.896 56.896 0 0 1-113.770666 0z m-455.104 0a56.896 56.896 0 1 1 113.770666 0 56.896 56.896 0 0 1-113.770666 0z" p-id="10094" fill="#1296db"></path></svg>